PathFileType	4	(X/Y/Z)	Patient4_TMGait_0pt5_02_right_41.trc.trc
DataRate	CameraRate	NumFrames	NumMarkers	Units	OrigDataRate	OrigDataStartFrame	OrigNumFrames
74.468085106383	74.468085106383	5	33	mm	74.468085106383	124	       141
Frame#	Time	Sacral			L.Shoulder			Chest			R.Shoulder			Neck			R.ASIS			L.ASIS			R.Thigh.Superior			R.Thigh.Lateral			R.Thigh.Inferior			R.Patella			L.Thigh.Superior			L.Thigh.Lateral			L.Thigh.Inferior			L.Patella			L.Shank.Superior			L.Shank.Lateral			L.Shank.Inferior			R.Shank.Superior			R.Shank.Lateral			R.Shank.Inferior			R.Heel			R.Midfoot.Superior			R.Midfoot.Lateral			R.Toe			L.Heel			L.Midfoot.Lateral			L.Midfoot.Superior			L.Toe			L.Elbow			L.Wrist			R.Elbow			R.Wrist			
		X1	Y1	Z1	X2	Y2	Z2	X3	Y3	Z3	X4	Y4	Z4	X5	Y5	Z5	X6	Y6	Z6	X7	Y7	Z7	X8	Y8	Z8	X9	Y9	Z9	X10	Y10	Z10	X11	Y11	Z11	X12	Y12	Z12	X13	Y13	Z13	X14	Y14	Z14	X15	Y15	Z15	X16	Y16	Z16	X17	Y17	Z17	X18	Y18	Z18	X19	Y19	Z19	X20	Y20	Z20	X21	Y21	Z21	X22	Y22	Z22	X23	Y23	Z23	X24	Y24	Z24	X25	Y25	Z25	X26	Y26	Z26	X27	Y27	Z27	X28	Y28	Z28	X29	Y29	Z29	X30	Y30	Z30	X31	Y31	Z31	X32	Y32	Z32	X33	Y33	Z33	

124	55.191714285714	656.577953729036	1007.455777172463	447.766367468006	876.390394855718	1422.242441417863	275.282446444558	956.599854918112	1346.824475305705	446.347357210397	861.683799414637	1429.015133264782	611.151774745412	865.786159030253	1485.275439509600	423.597134173716	873.233227552417	932.493014854574	580.791229031878	876.103926762357	948.762939026964	304.024589709888	936.795824079377	750.807110983810	557.008176137854	875.135350752325	634.630708306198	623.694665672408	962.298524245712	591.202509739987	545.118631099342	984.261208889982	509.266247274596	556.918483143539	873.223931657531	723.147552872814	338.296722575213	758.438309705513	630.741132763008	272.325890885867	811.545659812146	537.225594434869	341.765031936310	794.415663019230	469.692524848733	352.436579585003	759.108967691293	405.056387697299	343.507526387991	656.606863498483	304.396450721253	288.238098405716	683.023550166971	188.955810928391	364.834642236482	970.492025550670	420.959498347358	568.580931418394	917.558594999359	308.672466485605	632.510003872712	984.716231989656	222.520589696273	579.262338738252	888.569887172119	42.914959240829	552.680637789786	1054.642076449258	107.047664629748	588.839900648351	973.290826383545	38.401654237696	625.814751353127	1178.014032552622	62.955969186206	613.120329515060	534.981758039056	42.312487734678	401.589117168516	612.412873468666	36.275691904042	325.197797335989	695.982999848918	95.782739200872	354.402802000726	824.195580597324	38.838614712751	332.029165314950	932.234030673025	1086.197165287731	135.216139397039	1185.979966274095	1076.174534704202	163.632191241353	700.241635608417	1122.415535095366	710.545862549309	663.499903370020	863.199389493337	710.266595018896	
125	55.205142857143	657.655478026873	1006.538375761310	450.897532867209	875.379168106443	1421.946089178685	278.275976751340	956.645096937076	1346.585248337848	448.856299636434	862.177794675115	1428.156549968488	614.397730580845	865.376638486670	1484.834056312838	426.749354693030	875.232407932082	931.631119613208	582.842344643298	876.655256525098	948.460009686137	306.244862830276	939.431251959057	750.277125744269	558.141614612592	876.410215273705	633.490837028789	623.380658493688	964.094501356466	590.789168664203	545.316335168966	984.306376500499	507.353644687160	556.086187137639	873.746893145745	722.431875848166	339.561342857545	758.360505154776	630.124618209087	274.420379607213	811.868262967880	536.282936250778	343.325661373093	794.832068317802	467.927800069395	353.816346275276	757.945247374037	403.736403516741	344.891333809186	653.423252635785	305.065498903409	289.526575882702	678.129650733683	188.808263197273	365.370203800783	969.197362441279	418.348375795659	567.478692044600	913.903908959022	307.085563875097	631.412407828135	978.213501780007	219.439771577345	577.352077160364	877.206359153340	42.516849686187	551.342413288587	1044.477563684021	103.643920422402	586.455824037621	961.844307473525	37.396085799379	624.600774136922	1167.303698335716	57.587954421930	611.218963148633	528.249855155245	43.568403247814	401.544217270688	605.729782281396	36.865399675550	325.255811384042	689.684593980398	95.954946327555	354.386123106965	817.513054369714	38.648700176530	331.956148371852	928.078910944717	1084.446883327878	138.915217970003	1181.701817936160	1068.399424745320	167.624256035510	706.080347072224	1117.810633104599	713.333373355101	676.455741927097	857.532492021584	711.579520388015	
126	55.218571428571	658.799211948996	1005.811936711113	454.172209784876	874.310046612658	1421.931039436689	281.405990850246	956.715935406412	1346.577732492217	451.435707136157	862.787897808046	1427.476573805833	617.758294560415	865.007232882753	1484.630530626397	430.072876179260	877.387243789943	931.037696227774	584.806417527828	877.165286701162	948.381840257501	308.409963818936	942.172141812641	749.924363020314	558.989416660026	878.172272093566	632.792274630743	623.231857875175	965.972796611603	590.556853217192	545.345399988946	984.624547298168	505.713056058782	555.329363418961	874.713538200376	721.985460131981	340.780944830732	758.976831423248	629.474724766519	276.637232573346	813.279050705649	535.391486232473	344.925409249904	796.469988267148	466.043626122361	355.104228505343	757.691911747785	402.355918084939	346.281267737250	650.890498297372	306.023670816477	290.936911497477	673.664238364321	188.864206958614	365.882124698698	968.217798713629	416.172438767520	566.585352872622	910.933352955671	305.926481206007	630.824737400659	972.327637280935	216.838664876301	575.827721075893	866.685999876386	42.233649414820	550.560460294012	1034.961573601560	100.981463058624	584.571385307889	951.313098444542	36.720389617249	623.880117471803	1157.403072573641	53.352762801973	609.769558095979	521.605608523158	45.456267731189	401.512344381995	599.093879903611	37.768247583016	325.330066702520	683.633282606780	96.213146299103	354.310051086251	810.853515871224	38.446620967898	331.884985952297	923.459804025300	1082.888428185650	142.784149328423	1176.756299312633	1059.381292064993	171.585764655798	712.531463325143	1113.253712699549	716.324461193340	690.694094740246	851.993345397876	713.216656315891	
127	55.232000000000	660.008586400515	1005.294881310446	457.571917878586	873.180050400660	1422.220573632649	284.635828885238	956.796411308590	1346.821256926109	454.051060293069	863.503022160577	1427.005046730442	621.178432848105	864.669787277017	1484.683362199369	433.530177780323	879.637063380246	930.744932476067	586.695533051583	877.630255827824	948.534133528359	310.487078090367	944.820984467231	749.711334555265	559.600589291327	880.261013270575	632.512114507889	623.335411184537	967.717802669515	590.448760190308	545.259232410082	985.034884216730	504.363222551842	554.746586800026	876.186343013680	721.851233042043	341.992385110304	760.444700810583	628.790017972107	278.947888232536	815.973963876333	534.573363827600	346.531018839327	799.509776603771	464.063649227688	356.227688699377	758.518726217317	400.945091025545	347.615890832596	649.169740013687	307.352732891823	292.435088275336	669.760129289493	189.206540841412	366.325400450317	967.412444433093	414.454285706434	565.969804335465	908.552027259293	305.167718284257	630.734908030483	967.097974534999	214.774434882725	574.728798289933	857.264016514817	42.052225863352	550.249470022246	1026.310492450424	99.100376423729	583.233369293507	941.927566225534	36.331288430634	623.581373499188	1148.511822571616	50.316037622230	608.789267805589	515.137533482261	48.177321188362	401.493940380653	592.554938026109	39.104595764704	325.418723722409	677.921886906200	96.590683722399	354.150458024870	804.218952659159	38.239101228269	331.823671741801	918.415777612488	1081.576825681576	146.824347071988	1171.065059730364	1049.199603270924	175.482557392637	719.604696905347	1108.835511186845	719.501096121807	706.164657082332	846.747778826944	715.163248379446	
128	55.245428571429	661.274738901043	1004.990570094356	461.081741416818	871.981036378105	1422.811884810531	287.924938918732	956.866749807310	1347.318602306184	456.666559419473	864.303963401796	1426.758441303486	624.603168674166	864.343592685480	1484.990406934976	437.075193483205	881.925085383666	930.765732491884	588.538277320814	878.050717502299	948.900990067369	312.458307897094	947.214735494777	749.600063152910	560.061943482188	882.483135664675	632.584356807605	623.739770662561	969.153824393148	590.403199347755	545.134128320320	985.351692590900	503.281662751648	554.399737732634	878.215142452978	722.059368001886	343.244028347009	762.909237525418	628.072513749139	281.315359105142	820.119507570555	533.855804102673	348.103789469793	804.097430501226	462.026435445411	357.120442726239	760.587180894004	399.544506112675	348.831922191101	648.429886983073	309.133751042364	293.980911040576	666.566030999301	189.926290546585	366.657096693005	966.608544639305	413.156851980517	565.656507827773	906.553422095901	304.742338210113	631.060313912137	962.422903098642	213.229167524818	574.038949232897	848.952947347319	41.955221103111	550.294139690164	1018.539156228123	97.938403166905	582.413628432884	933.676985853098	36.165751173364	623.604825845645	1140.614641635697	48.381428189599	608.236634082133	508.971894478459	51.947083344925	401.490385645129	586.188260665173	41.019352020666	325.520038319087	672.657217045407	97.131872315245	353.888654510090	797.613587620319	38.030150102305	331.779940667342	912.982264494542	1080.542605579771	151.039455486996	1164.528226357755	1037.953093248500	179.279755303589	727.311005561012	1104.637757823913	722.854379519813	722.849890447221	841.967026193832	717.393840482761	
